<svg xmlns="http://www.w3.org/2000/svg" viewBox="0 0 330.89 57.86"><path d="M155.6,13.86q-1.86.11-3.72.27c-3.19.28-6.38.69-9.55,1.17a20.41,20.41,0,0,1-4.72-.71.18.18,0,0,0-.1-.17,20.27,20.27,0,0,1-5.12-4.2,21.45,21.45,0,0,0-4.18-3.37c-.12-.12-.26-.25-.39-.24a1.08,1.08,0,0,1-.18-.11,28.88,28.88,0,0,0-5.89-2.29C117.44,3,112.93,2.3,109,.05c-.4-.23-.7.45-.29.67l.21.1a7.46,7.46,0,0,0,3.68,5.26c2,1.29,4.31,2,6.32,3.3s3.71,2.91,5.84,3.95a19.6,19.6,0,0,0,6.55,1.72c1.11.11,2.22.15,3.33.17a21.92,21.92,0,0,0,3-.05,18.58,18.58,0,0,0,2.67.44l-2.25.37a.36.36,0,0,0-.2,0c-4.4.75-8.78,1.6-13.16,2.43a.26.26,0,0,0-.17-.05,2,2,0,0,0-.72.22l-1.12.21-1.73.32a.36.36,0,0,0-.07-.1,25.31,25.31,0,0,0-4.49-3,32.17,32.17,0,0,0-4.91-2.18c-3.07-1.07-6.32-1.53-9.41-2.55a19.47,19.47,0,0,1-4.45-2.1c-1.38-.9-2.69-1.91-4.09-2.8-5.15-3.31-11.35-4.15-17.37-4.1L75.61,2a.34.34,0,0,0-.38.54.32.32,0,0,0,.19.33c.7.34,1.38.7,2,1.09l.06,0A22,22,0,0,1,79.44,5.3a42.92,42.92,0,0,1,3.48,3c2,1.89,3.92,3.9,6,5.75a30,30,0,0,0,7,4.79,28.62,28.62,0,0,0,10.2,2.75c-3.65.5-7.32.91-11,1.17a10.89,10.89,0,0,0-1.8-.68l-2.16-.83q-2.16-.86-4.28-1.78c-2.82-1.24-5.58-2.63-8.32-4-.16-.08-.31.18-.16.28,1.09.72,2.21,1.4,3.33,2-1.23.16-2.47.33-3.68.61a.24.24,0,0,0,.07.48c1.57,0,3.12-.25,4.68-.44l0,0c1.18.65,2.38,1.27,3.61,1.86q2.09,1,4.23,1.88c.68.27,1.36.54,2,.79q-5.91.33-11.83.25H80.8l-2.27,0c-1-.14-2.08-.3-3.12-.51-1.58-1-3.17-2-4.69-3.11-1.74-1.27-3.43-2.61-5.13-3.93a70.07,70.07,0,0,0-9.47-6.47A51.77,51.77,0,0,0,45.53,4.86,106.82,106.82,0,0,0,23.24,1.52c-.3-.1-.6-.22-.9-.31-.52-.17-.86.62-.34.78a1.06,1.06,0,0,1,.19.06.37.37,0,0,0,.37.33l.72.05a37.62,37.62,0,0,1,9.34,5.7,99.09,99.09,0,0,0,9,6.5c.84.5,1.69,1,2.55,1.45a.26.26,0,0,0,.25.17h.11a59.14,59.14,0,0,0,7.22,3.24c1.8.66,3.64,1.23,5.5,1.72-2-.3-4-.66-6.06-1h0c-.25-.06-.5-.1-.75-.14-3.86-.74-7.7-1.59-11.5-2.6-4.5-1.19-9-2.56-13.35-4.12S17,10,12.71,8.29a.29.29,0,0,0-.23.53c1,.52,2.09,1,3.16,1.5,1.45.64,2.92,1.24,4.4,1.83A80.8,80.8,0,0,1,4.85,15.79a.92.92,0,0,0-.18-.3,1.32,1.32,0,0,0-.59-.4A1.34,1.34,0,0,0,3.34,15a1.38,1.38,0,0,0-.34.12,1.48,1.48,0,0,0-.39.31,1.38,1.38,0,0,0-.31.67,1.27,1.27,0,0,0,.52,1.27,1.32,1.32,0,0,0,.69.25h.11a1.17,1.17,0,0,0,.52-.05,1.27,1.27,0,0,0,.51-.38,1.35,1.35,0,0,0,.24-.46A1.72,1.72,0,0,0,5,16.2a77.86,77.86,0,0,0,16.24-3.42.52.52,0,0,0,.18-.1A165.11,165.11,0,0,0,42,19.08c1,.24,1.93.45,2.9.67-1.57,0-3.14,0-4.7.12A44.07,44.07,0,0,0,22.53,24.7a31.62,31.62,0,0,0-12,11,.3.3,0,0,0,.28.46.41.41,0,0,0,.43.08l.38-.13a.3.3,0,0,0,.16,0l.49-.21A53.73,53.73,0,0,1,22.7,33.37c6.89-.92,14-.1,20.78-2a21.17,21.17,0,0,0,7.3-3.62,12.59,12.59,0,0,0,4.47-6c4.68.77,9.4,1.34,14.13,1.72,1.86.14,3.73.25,5.6.34-.77.19-1.53.4-2.29.64a60.11,60.11,0,0,0-7.89,3.26c-2.65,1.29-5.29,2.64-7.86,4.08s-5,2.87-7.4,4.41c-1.24.79-2.49,1.58-3.7,2.43-1,.71-2.07,1.42-3,2.21a5.71,5.71,0,0,0-.79.28.38.38,0,0,0,.19.73h.14a.35.35,0,0,0,.5.1l.29-.17c.91-.13,1.82-.4,2.71-.57,1.18-.23,2.36-.44,3.55-.62,2.32-.36,4.66-.62,7-.81a.34.34,0,0,0,.5,0l.1-.09c4.08-.3,8.18-.29,12.26-.68a35.74,35.74,0,0,0,10.92-2.67,31.62,31.62,0,0,0,8.45-5.48,26.67,26.67,0,0,0,5.51-6.59c.48-.24,1-.49,1.42-.75a.16.16,0,0,0,0-.07l1.53-.11c4.16-.36,8.3-.9,12.43-1.54l-.82.37a33.31,33.31,0,0,0-4.92,2.91,32.46,32.46,0,0,0-7.34,7.27,88.65,88.65,0,0,0-5.83,9.86,49.6,49.6,0,0,1-5.87,8.94,23.71,23.71,0,0,1-3.67,3.48,23.39,23.39,0,0,1-3.39,2.06l-.67.1a.44.44,0,0,0-.39.5c-.14.21,0,.59.28.51l.33-.1A47.46,47.46,0,0,0,83,57a27.56,27.56,0,0,0,5.43-1.53,19.94,19.94,0,0,0,7.87-6.09A52.66,52.66,0,0,0,102,40.64a61.2,61.2,0,0,0,4.15-10,30,30,0,0,1,1.95-5.07,13,13,0,0,1,3.16-3.75h0l1.07-.44c3.24-.55,6.48-1.15,9.71-1.76l-.55.33A31.51,31.51,0,0,0,118.53,22l-.07.06h0a1.2,1.2,0,0,0-.69.15l-.7.27-1.4.56c-.93.39-1.84.8-2.74,1.23a.18.18,0,0,0,.14.34c1-.28,1.93-.59,2.88-.92l1-.39c-.39.35-.78.71-1.16,1.08A10.92,10.92,0,0,0,113.62,27h0a.15.15,0,0,0,.23.19A11.81,11.81,0,0,0,115.11,26c.41-.41.82-.83,1.24-1.23.85-.81,1.73-1.57,2.65-2.29s1.84-1.34,2.8-1.94c.52-.33,1.06-.63,1.6-.91.25-.14.53-.26.79-.4l2-.38c3.51-.68,7-1.35,10.53-2l-1,.81a17.66,17.66,0,0,0-3.85,1,23.3,23.3,0,0,0-7.7,4.49c-1.13,1-2.19,2-3.26,3.09s-2.28,2-3.4,3a.18.18,0,0,0,0,.23,16.53,16.53,0,0,0-5.08,4c-2.84,3.17-4.73,7-6.51,10.85-1,2.07-1.91,4.16-3,6.18-.55,1-1.12,2-1.75,3-.48.73-1,1.48-1.46,2.19l-.32.15a.39.39,0,0,0-.2.58.16.16,0,0,0,.16.17.44.44,0,0,0,.36,0,40,40,0,0,0,5.3-2.39,53.78,53.78,0,0,0,4.86-2.86,60.86,60.86,0,0,0,14.92-13.85,58.31,58.31,0,0,0,5.47-8.64,43.25,43.25,0,0,0,3.42-8.48l2.82-2.2a2.27,2.27,0,0,1,.25-.06.22.22,0,0,0,.14-.25l1.46-1.14a.57.57,0,0,0,.12-.15c5.71-1,11.45-1.86,17.22-2.42A.16.16,0,0,0,155.6,13.86Zm-22.79-2.51A19.06,19.06,0,0,0,136,14.09c-.55-.21-1.09-.43-1.62-.69a20.16,20.16,0,0,1-2.08-1.17s0,0-.07-.05c-.79-.5-1.55-1-2.32-1.58a6.11,6.11,0,0,0-.5-1.93,6.19,6.19,0,0,0-.36-.67A31.1,31.1,0,0,1,132.81,11.35Zm-4.87-4.1.06.07a7.36,7.36,0,0,1,1.54,3l-1.24-.86a22.82,22.82,0,0,0-5.57-2.77.82.82,0,0,0-.11-.21,3.87,3.87,0,0,0-.47-.52A13.67,13.67,0,0,0,121.09,5c-.27-.22-.55-.41-.83-.61A28.85,28.85,0,0,1,127.94,7.25Zm-12.19-4c1,.26,2,.5,3,.75.29.17.58.34.86.52a10.29,10.29,0,0,1,1,.79,12.38,12.38,0,0,1,1,.92.94.94,0,0,1,.1.1c-2.31-.67-4.69-1.1-6.94-2a14.54,14.54,0,0,1-3-1.51,16.67,16.67,0,0,1-1.95-1.61A35.73,35.73,0,0,0,115.75,3.29Zm2.48,5c-1.78-1-3.71-1.69-5.4-2.82A8,8,0,0,1,110,2.22a12.35,12.35,0,0,0,5,3c2.38.85,4.89,1.26,7.3,2a19.18,19.18,0,0,1,3.35,1.43c-1.22,0-2.44.05-3.66,0-.73,0-1.46-.09-2.19-.17C119.29,8.43,118.75,8.29,118.23,8.24Zm5.77,4c-1.68-1-3.15-2.34-4.79-3.42l.69.09c.73.07,1.47.13,2.2.16a24.91,24.91,0,0,0,4.05-.16c.95.55,1.88,1.15,2.81,1.79.76.53,1.53,1.06,2.3,1.56a24.42,24.42,0,0,1-3.2.17,20.6,20.6,0,0,1-2.07-.16,10.77,10.77,0,0,0-1.87-.25C124,12.05,124,12.16,124,12.26Zm10.48,2.45a36,36,0,0,1-3.74-.27,18,18,0,0,1-6.33-1.93l-.09-.06a7,7,0,0,0,1.75.34,20.56,20.56,0,0,0,2.07.14,16.24,16.24,0,0,0,3.61-.34,21.25,21.25,0,0,0,3.51,1.83l.88.31C135.59,14.73,135,14.73,134.48,14.71Zm-92.9,5.88c1.64-.08,3.28-.08,4.93,0,.79,0,1.59.06,2.38.12l.61.05,1,.19c-2.75.44-5.46,1-8.15,1.76L41.23,23l0,0a16.71,16.71,0,0,0-3.74-1.29c-.63-.16-1.28-.3-1.92-.42A52.92,52.92,0,0,1,41.58,20.59Zm-9.5,1.35c.6-.15,1.21-.27,1.81-.39.51.08,1,.14,1.52.23s1.28.26,1.91.41c1.14.27,2.26.63,3.39.92q-3.9,1.09-7.72,2.45s0,0,0-.06a4.18,4.18,0,0,0-2-.57c-.69-.13-1.39-.24-2.09-.35-1.12-.17-2.24-.29-3.37-.39A40.1,40.1,0,0,1,32.08,21.94ZM12.42,34.88l-.85.28a33.18,33.18,0,0,1,5.56-5.86,35.55,35.55,0,0,1,7.06-4.51.33.33,0,0,0,.2.08c1.47.11,2.93.27,4.38.45q1.05.13,2.1.3c.39.06.84.2,1.28.24-1.91.69-3.81,1.41-5.68,2.18-2.61,1.08-5.17,2.24-7.7,3.47-1.24.61-2.47,1.24-3.69,1.88C14.19,33.87,13.27,34.33,12.42,34.88Zm8.32-2.07c-1.46.24-2.92.56-4.36.92,1.21-.63,2.43-1.25,3.66-1.84,3.85-1.85,7.8-3.52,11.81-5-.32.79-.66,1.59-1.05,2.35-.27.52-.57,1-.88,1.53s-.61.83-.87,1.27A68.25,68.25,0,0,0,20.74,32.81ZM31,32l-1.22,0c.22-.31.43-.65.63-1a17.45,17.45,0,0,0,.86-1.52,15.29,15.29,0,0,0,1.12-2.83c1-.36,1.95-.72,2.94-1.05,3.53-1.19,7.12-2.2,10.72-3.15a10.11,10.11,0,0,0-1.57,1.4,19.22,19.22,0,0,0-1.9,2.32,48.07,48.07,0,0,0-3,5.16A77.15,77.15,0,0,1,31,32Zm21.55-6.8a15.15,15.15,0,0,1-3.39,2.9,23,23,0,0,1-8.81,3.18,41.81,41.81,0,0,1,2.67-4.7,19,19,0,0,1,1.83-2.28c.34-.36.7-.7,1.08-1a8.24,8.24,0,0,0,1-.93.08.08,0,0,0,0-.07l4.46-1.14c1.09.21,2.2.39,3.3.57A16.07,16.07,0,0,1,52.58,25.18ZM56.4,10.1c.11.14.23.27.33.41.23.3.45.6.66.91a18.5,18.5,0,0,1,1.21,2.06,17.68,17.68,0,0,1,.93,2.2c.15.45.28.9.4,1.35-2.73-1.31-5.4-2.73-8.08-4.16a13.06,13.06,0,0,0-1.59-3.58A16.55,16.55,0,0,0,48.2,6.58,51.53,51.53,0,0,1,56.4,10.1ZM35.45,3.62A74.93,74.93,0,0,1,47,6.19a.33.33,0,0,0,.1.17,14.77,14.77,0,0,1,2.67,3.22,18.65,18.65,0,0,1,1.39,2.93c-1.83-1-3.66-1.95-5.5-2.9a97,97,0,0,0-11.3-5.08c-1.69-.61-3.43-1.19-5.2-1.65C31.27,3.08,33.37,3.31,35.45,3.62Zm-.87,5a59.2,59.2,0,0,0-7.94-5.5c1,.2,1.91.42,2.85.68A59,59,0,0,1,36,5.93c3,1.2,5.94,2.58,8.82,4-1.52-.11-3.05-.16-4.56-.35-1-.14-2.1-.31-3.13-.51-.51-.1-1-.21-1.51-.33A3.36,3.36,0,0,0,34.58,8.58Zm5.91,4.36c-1.58-1-3.1-2.18-4.61-3.35.38.08.75.17,1.13.24,1,.2,2.08.37,3.13.5a24.63,24.63,0,0,0,5.88.26c3.43,1.77,6.82,3.61,10.25,5.37l-.43,0H54.15c-1.06,0-2.12,0-3.18-.06-2,0-4-.14-5.94-.23C43.48,14.8,42,13.91,40.49,12.94Zm20.79,8.48a58.34,58.34,0,0,1-14.8-5.06c1.49.08,3,.13,4.49.17,1.06,0,2.11,0,3.17,0h1.68a12.77,12.77,0,0,0,1.4-.13l1,.5,2,.95h0a.17.17,0,0,0,.24.11,74.29,74.29,0,0,0,9.28,3.73c1,.32,2.06.6,3.1.87A70.77,70.77,0,0,1,61.28,21.42ZM68,20.48a81.6,81.6,0,0,1-7.53-3.18A14.92,14.92,0,0,0,60,15.42,18.79,18.79,0,0,0,59,13.14,19.65,19.65,0,0,0,57.84,11l-.1-.14a89.18,89.18,0,0,1,8.77,6.22c1.53,1.17,3.07,2.34,4.65,3.45.84.58,1.69,1.17,2.57,1.7A54.43,54.43,0,0,1,68,20.48Zm-17.41,16c4.5-2.74,9.12-5.3,13.85-7.62a25.66,25.66,0,0,0,2.6.44c1,.15,2,.26,3,.35s2.27.17,3.4.2c-4,.86-7.91,1.7-11.82,2.76A75.38,75.38,0,0,0,51.54,36c-.35.15-.68.31-1,.47Zm6.18,2.42c-.76.05-1.52.09-2.28.16q-3.16.3-6.32.8c-.88.14-1.76.29-2.63.45.81-.51,1.62-1,2.47-1.48a53.53,53.53,0,0,1,5.37-2.52,82.83,82.83,0,0,1,9-3L60.73,35c-.74.72-1.46,1.45-2.19,2.18C58,37.71,57.36,38.28,56.79,38.87ZM67,38.4c-3,.19-6,.24-9,.4.32-.33.63-.66.95-1l2-2c.67-.69,1.36-1.38,2-2.08.25-.26.51-.55.8-.8,3.49-.92,7-1.71,10.55-2.52,2.33-.53,4.65-1.07,7-1.67a20.46,20.46,0,0,0-4.63,3.87,19.43,19.43,0,0,0-3.41,5.08A49.38,49.38,0,0,1,67,38.4ZM91.13,27.46a30.7,30.7,0,0,1-4.06,3.92,31,31,0,0,1-8.65,4.91,29.84,29.84,0,0,1-4.5,1.27,23.65,23.65,0,0,1,1.24-2.19,22.88,22.88,0,0,1,6.61-6.56.13.13,0,0,0,0-.21c1.15-.3,2.29-.61,3.43-1,1.77-.52,3.52-1.1,5.24-1.76.92-.36,1.83-.72,2.73-1.13C92.54,25.68,91.87,26.6,91.13,27.46Zm2.74-3.64c-1.48.61-3,1.22-4.46,1.75q-3,1-6,1.89c-2.68.73-5.38,1.36-8.09,2-1.7-.07-3.4-.17-5.1-.33-1-.11-2-.23-3-.38-.61-.08-1.22-.2-1.83-.31l.44-.22A52.55,52.55,0,0,1,73.67,25a27.25,27.25,0,0,1,4.1-.9c.54-.07,1.07-.12,1.61-.16q7.32.13,14.63-.34A2.43,2.43,0,0,1,93.87,23.82ZM90.48,5.51A27.18,27.18,0,0,1,94.6,8a46.69,46.69,0,0,0,3.92,2.6,17.87,17.87,0,0,0,2.79,1.25c.22.33.46.65.67,1s.56.91.81,1.38.46.94.67,1.43.42,1,.61,1.45l0,.05c-3.16-1.34-6.27-2.83-9.32-4.41a21.24,21.24,0,0,0-2.16-4.25A22.16,22.16,0,0,0,91,6.32c-.25-.29-.51-.61-.79-.91ZM77.22,2.9A42.8,42.8,0,0,1,86,4a27.57,27.57,0,0,1,2.68.81.28.28,0,0,0,.07.17c.56.65,1.26,1.2,1.84,1.85a24,24,0,0,1,1.53,1.93,22.25,22.25,0,0,1,2,3.66L91.53,11c-2.67-1.43-5.32-2.91-8-4.41l-4-2.32C78.78,3.82,78,3.35,77.22,2.9Zm10.92,9.55c-2-1.86-3.85-3.83-5.87-5.63L82,6.59l2.34,1.34C89.13,10.62,94,13.15,99,15.43c-1.22,0-2.44,0-3.65,0-.72,0-1.45-.07-2.16-.14s-1.35-.17-2-.2C90.1,14.22,89.11,13.35,88.14,12.45Zm9.35,20.1A32.92,32.92,0,0,1,105,25.28c.27-.2.55-.38.83-.57a24.57,24.57,0,0,0-2.87,3.7c-1.14,1.74-2.27,3.5-3.39,5.26a9.17,9.17,0,0,0-2.15.26c-.35.07-.7.16-1,.25C96.72,33.63,97.1,33.09,97.49,32.55ZM80.67,56.15a23.63,23.63,0,0,0,5.18-4.78c4.14-4.95,6.55-11,10-16.41.56-.19,1.12-.36,1.69-.5s1.19-.27,1.77-.43c-2.34,3.67-4.65,7.36-7,11a42.4,42.4,0,0,1-5.29,7.24,15.73,15.73,0,0,1-3.24,2.57A13.34,13.34,0,0,1,80.67,56.15Zm16-8.76c-.49.64-1,1.27-1.51,1.88A18.69,18.69,0,0,1,87.06,55a28.24,28.24,0,0,1-3.39.91l.64-.36a17.06,17.06,0,0,0,3.55-2.9,45.2,45.2,0,0,0,5.25-7.32c1.06-1.68,2.11-3.37,3.17-5.06.09.56.27,1.11.36,1.66a15.82,15.82,0,0,1,.23,1.8A18.13,18.13,0,0,1,96.69,47.39ZM102.83,37c-.55,1.19-1.13,2.37-1.76,3.52a57,57,0,0,1-3.71,5.93,16.73,16.73,0,0,0,0-2.74,14.71,14.71,0,0,0-.24-1.87A8.06,8.06,0,0,0,96.67,40a.22.22,0,0,0-.19-.12l2-3.2c1.22-2,2.44-4,3.67-5.93.1.34.21.69.29,1,.12.53.21,1,.28,1.58a15.82,15.82,0,0,1,0,3.37A.31.31,0,0,0,102.83,37Zm4.77-11.84a30.5,30.5,0,0,0-2.28,5.65q-.84,2.46-1.87,4.84a16.49,16.49,0,0,0-.16-2.33,15.36,15.36,0,0,0-.33-1.64,7.81,7.81,0,0,0-.48-1.41c.38-.61.75-1.22,1.14-1.82a19.66,19.66,0,0,1,4.32-5c.51-.28,1-.55,1.55-.81l.12-.05A10.72,10.72,0,0,0,107.6,25.17ZM109.9,21a29.76,29.76,0,0,1-7-.53,28,28,0,0,1-8.08-3,27.09,27.09,0,0,1-2.73-1.77l1,.09c.75.07,1.5.12,2.25.14a33.7,33.7,0,0,0,4.38-.18c.41.19.82.39,1.24.57a69.38,69.38,0,0,0,8.69,3.37,17.81,17.81,0,0,0,3.84.71Zm8-1.33a.08.08,0,0,0-.08-.09c-.83.12-1.63.35-2.46.42a11.8,11.8,0,0,1-2.45-.08A22.87,22.87,0,0,1,108,18.66c-1.28-.47-2.54-1-3.8-1.5.1,0,.21-.06.18-.17a14,14,0,0,0-.47-1.56,15.39,15.39,0,0,0-.64-1.44c-.23-.48-.49-1-.76-1.41-.09-.14-.17-.29-.26-.44l.68.21c3.1.89,6.28,1.41,9.29,2.58a31.9,31.9,0,0,1,4.26,2c1.25.7,2.4,1.54,3.57,2.35C119.36,19.43,118.65,19.57,117.94,19.69Zm-4.76,14.05a20.34,20.34,0,0,1,4.9-3.85.31.31,0,0,0,.15-.33c.78-.15,1.55-.27,2.33-.36.42-.05.83-.08,1.24-.11l.4,0A88.48,88.48,0,0,0,116,35.55a52.9,52.9,0,0,0-6.31,3A28.24,28.24,0,0,1,113.18,33.74ZM101.89,53.57a33.61,33.61,0,0,0,1.86-3.11c2-3.65,3.45-7.52,5.48-11.13h0c2-1.18,4.13-2.07,6.18-3.13-.87,1-1.72,2.06-2.52,3.14C109,44.52,105.65,50,101.1,54.66,101.37,54.31,101.64,54,101.89,53.57Zm17-11.19c-.09.29-.21.58-.31.87-.71.69-1.42,1.37-2.16,2a57.54,57.54,0,0,1-8.06,6c-1.44.88-2.92,1.7-4.42,2.46-.78.39-1.58.75-2.38,1.1A43.3,43.3,0,0,0,108,47.49c2-2.81,4-5.72,6.11-8.47a78.22,78.22,0,0,1,6.71-7.51,41.26,41.26,0,0,1-.64,6c-.2,1.09-.46,2.17-.76,3.24C119.23,41.28,119.06,41.83,118.87,42.38ZM126.27,31a21.49,21.49,0,0,1-.4,2.38c-.16.7-.42,1.37-.62,2.06a60.75,60.75,0,0,1-5.7,6.82c.16-.49.3-1,.43-1.49.28-1,.52-2.12.71-3.19a34.31,34.31,0,0,0,.52-6.47l.24-.25c1.53-1.49,3.13-2.92,4.74-4.32A20.15,20.15,0,0,1,126.27,31Zm2.64-1.29q-1.17,2.07-2.49,4.05c0-.07,0-.14,0-.21a20,20,0,0,0,.37-2.56,18.61,18.61,0,0,0-.27-4.77c2.09-1.81,4.23-3.56,6.39-5.28A74.74,74.74,0,0,1,128.91,29.7Zm-.79-5.92c-1.84,1.56-3.65,3.16-5.4,4.81a4,4,0,0,0-1,0c-.41,0-.83.05-1.24.09-.6.06-1.2.16-1.79.27a23.07,23.07,0,0,0,2.82-2.4,35.8,35.8,0,0,1,6.9-5.62,22.79,22.79,0,0,1,4-1.75,22,22,0,0,1,2.15-.59C132.39,20.28,130.23,22,128.12,23.78Z" style="fill:#4d4c51"/><path d="M10.83,6.63a1.32,1.32,0,0,0-.36-.48,1.64,1.64,0,0,0-.33-.26L10,5.83l-.3-.06a1.33,1.33,0,0,0-1,.33,1.25,1.25,0,0,0-.34.45A1.45,1.45,0,0,0,8.3,7a1.57,1.57,0,0,0,.25.94,1.3,1.3,0,0,0,.81.52,1.19,1.19,0,0,0,.42,0,1,1,0,0,0,.41-.12,1.29,1.29,0,0,0,.66-.68A1.26,1.26,0,0,0,10.83,6.63Z" style="fill:#4d4c51"/><path d="M11.4,9.59l0,0h0l0-.08h0l0-.06,0,0a.36.36,0,0,1,.07.1Z" style="fill:#4d4c51"/><path d="M11.51,9.84a.8.8,0,0,0-.11-.25.75.75,0,0,0-.15-.2l.07.08-.08-.09h0s0,0,0,0a.81.81,0,0,0-.37-.15.71.71,0,0,0-.38.06.76.76,0,0,0-.3.23.82.82,0,0,0-.15.36.89.89,0,0,0,.06.39.73.73,0,0,0,.59.44h.21l.19-.05h0l.16-.1h0a.6.6,0,0,0,.18-.21.62.62,0,0,0,.09-.27Z" style="fill:#4d4c51"/><path d="M11.38,9.54l0,0v0h0Z" style="fill:#4d4c51"/><path d="M11.44,9.64s0,0,0,0v0Z" style="fill:#4d4c51"/><path d="M13.26,6.34a.33.33,0,0,0-.1-.14A.3.3,0,0,0,13,6.11h0l-.08,0h-.1l-.09,0h0l-.09.06a.46.46,0,0,0-.14.17l0,.12a.35.35,0,0,0,0,.22l0,.1a.59.59,0,0,0,.18.13.47.47,0,0,0,.17,0,.45.45,0,0,0,.16,0,.36.36,0,0,0,.14-.1.34.34,0,0,0,.09-.14.25.25,0,0,0,0-.17A.45.45,0,0,0,13.26,6.34Z" style="fill:#4d4c51"/><path d="M7,17.8a.7.7,0,0,0-.15-.34l-.13-.14a.83.83,0,0,0-.35-.14.65.65,0,0,0-.28,0,.53.53,0,0,0-.25.12.6.6,0,0,0-.18.21.51.51,0,0,0-.09.27V18a.85.85,0,0,0,.14.34l.13.13a.8.8,0,0,0,.36.14.45.45,0,0,0,.28,0,.58.58,0,0,0,.25-.12.52.52,0,0,0,.18-.21A.62.62,0,0,0,7,18Z" style="fill:#4d4c51"/><path d="M6.4,14h0a.2.2,0,0,0,0-.09l-.08-.08a.35.35,0,0,0-.14-.06.33.33,0,0,0-.17,0l-.1,0a.45.45,0,0,0-.17.13l0,.1a.22.22,0,0,0,0,.16.45.45,0,0,0,0,.16.44.44,0,0,0,.22.22l.11,0a.71.71,0,0,0,.21,0l.1-.06a.35.35,0,0,0,.12-.17.11.11,0,0,0,0-.06.39.39,0,0,0,0-.15Z" style="fill:#4d4c51"/><path d="M10.82,17.16a.66.66,0,0,0-.13-.31l-.12-.11a.61.61,0,0,0-.31-.13.46.46,0,0,0-.26,0,.57.57,0,0,0-.22.11.58.58,0,0,0-.16.19.5.5,0,0,0-.09.24v.18a.58.58,0,0,0,.13.3l.11.12a.75.75,0,0,0,.32.13.52.52,0,0,0,.25,0,.64.64,0,0,0,.47-.54Z" style="fill:#4d4c51"/><path d="M3.14,13l0-.06A.54.54,0,0,0,3,12.68a.8.8,0,0,0-.41-.38.83.83,0,0,0-.62,0,1,1,0,0,0-.54,1.3.92.92,0,0,0,.31.41,1,1,0,0,0,.47.17.76.76,0,0,0,.26,0A1.17,1.17,0,0,0,2.86,14l.05,0L3,13.85a1,1,0,0,0,.14-.29.85.85,0,0,0,0-.32A.76.76,0,0,0,3.14,13Z" style="fill:#4d4c51"/><path d="M2.6,19.15A1.35,1.35,0,0,0,2,18.26a1.45,1.45,0,0,0-.6-.22,1.27,1.27,0,0,0-.61.1,1.3,1.3,0,0,0-.71.78,1.39,1.39,0,0,0,0,.7,1.08,1.08,0,0,0,.37,1,1.3,1.3,0,0,0,1,.24,1.42,1.42,0,0,0,.93-.59,1.69,1.69,0,0,0,.26-.6A1.1,1.1,0,0,0,2.6,19.15Z" style="fill:#4d4c51"/><path d="M5,19.86a.6.6,0,0,0-.1-.25l-.1-.09a.46.46,0,0,0-.25-.1.34.34,0,0,0-.2,0,.37.37,0,0,0-.18.08.48.48,0,0,0-.13.16.44.44,0,0,0-.07.19V20a.51.51,0,0,0,.11.25l.09.09a.49.49,0,0,0,.25.1.31.31,0,0,0,.21,0,.37.37,0,0,0,.18-.08A.34.34,0,0,0,5,20.19.4.4,0,0,0,5.05,20Z" style="fill:#4d4c51"/><path d="M1,16.15a.24.24,0,0,0-.06-.09L.82,16a.39.39,0,0,0-.15,0l-.1,0a.27.27,0,0,0-.08.07.35.35,0,0,0-.06.14.32.32,0,0,0,0,.14v0a.18.18,0,0,0,.08.09.1.1,0,0,0,0,0H.64a.14.14,0,0,0,.11,0,.34.34,0,0,0,.14-.05A.31.31,0,0,0,1,16.4a.17.17,0,0,0,0-.1A.26.26,0,0,0,1,16.15Z" style="fill:#4d4c51"/><path d="M77.52,14.51a1.13,1.13,0,0,0-.08-.24,1.09,1.09,0,0,0-.23-.29.87.87,0,0,0-1-.13A1.07,1.07,0,0,0,76,14a1.19,1.19,0,0,0-.23.31,1.21,1.21,0,0,0-.08.25.66.66,0,0,0,0,.14.76.76,0,0,0,0,.15,1,1,0,0,1,0,.1.87.87,0,0,0,.54.62.94.94,0,0,0,.5,0,1,1,0,0,0,.45-.2A.91.91,0,0,0,77.52,14.51Z" style="fill:#4d4c51"/><path d="M79.41,13.65a.6.6,0,0,0-.1-.25l-.1-.09a.51.51,0,0,0-.25-.1.47.47,0,0,0-.2,0,.32.32,0,0,0-.17.09.37.37,0,0,0-.13.15.4.4,0,0,0-.07.19v.14a.5.5,0,0,0,.1.24l.09.09a.6.6,0,0,0,.25.1.44.44,0,0,0,.2,0,.31.31,0,0,0,.18-.09.44.44,0,0,0,.12-.15.4.4,0,0,0,.07-.19Z" style="fill:#4d4c51"/><path d="M77.66,16c-.33,0-.4.53-.06.53S78,16,77.66,16Z" style="fill:#4d4c51"/><path d="M77.37,19.32s0-.06,0-.09a1.21,1.21,0,0,0,0-.19h0s0,0,0,0a.45.45,0,0,0,0-.11s0,0,0,0a1,1,0,0,0-.29-.44.89.89,0,0,0-.7-.19,1,1,0,0,0-.65.37.9.9,0,0,0-.19.72,1,1,0,0,0,.18.41,1.07,1.07,0,0,0,.14.16l.08.06a1.1,1.1,0,0,0,.42.17h.09a.6.6,0,0,0,.23,0,.82.82,0,0,0,.39-.18s0-.05.06-.07a1,1,0,0,0,.15-.14s0,0,0-.06h0a.93.93,0,0,0,.12-.33Z" style="fill:#4d4c51"/><path d="M83.73,15.3a.67.67,0,0,0-.13-.3l-.11-.11a.56.56,0,0,0-.3-.12.42.42,0,0,0-.25,0,.62.62,0,0,0-.22.1.55.55,0,0,0-.15.19.4.4,0,0,0-.08.23v.17a.67.67,0,0,0,.13.3l.11.11A.56.56,0,0,0,83,16a.42.42,0,0,0,.25,0,.51.51,0,0,0,.22-.11.65.65,0,0,0,.15-.18.49.49,0,0,0,.08-.23Z" style="fill:#4d4c51"/><path d="M81.69,21.12l-.06-.1a.45.45,0,0,0-.17-.13.53.53,0,0,0-.22,0h0A.44.44,0,0,0,81,21a.46.46,0,0,0-.13.18h0a.31.31,0,0,0,0,.13h0a.36.36,0,0,1,0,.11v.1a.35.35,0,0,0,.06.14.18.18,0,0,0,0,.07.23.23,0,0,0,.12.08l.1,0h.1a.29.29,0,0,0,.13-.05.24.24,0,0,0,.11-.09l0,0s0,0,0,0l0,0a.5.5,0,0,0,.08-.2A.41.41,0,0,0,81.69,21.12Z" style="fill:#4d4c51"/><path d="M113.7,28.56a.71.71,0,0,0-.14-.32l-.12-.12,0,0,0,0a.51.51,0,0,0-.22-.11.5.5,0,0,0-.17,0,.3.3,0,0,0-.16,0,.32.32,0,0,0-.15.06.52.52,0,0,0-.18.15h0l-.08.14h0l0,.17h0v0s0,.06,0,.09v.06h0v0s0,0,0,.08a.45.45,0,0,0,.11.23.54.54,0,0,0,.2.17.58.58,0,0,0,.25.09.48.48,0,0,0,.27,0,.38.38,0,0,0,.23-.11l.13-.12a.79.79,0,0,0,.13-.33Z" style="fill:#4d4c51"/><path d="M116.5,27.13l0-.08a.24.24,0,0,0-.14-.1h0a.41.41,0,0,0-.19,0,.21.21,0,0,0-.13,0,.31.31,0,0,0-.11.09l0,.08a.31.31,0,0,0,0,.19.32.32,0,0,0,0,.09l0,.07h0a.22.22,0,0,0,.1.09.34.34,0,0,0,.14.05h.09a.33.33,0,0,0,.17-.07.23.23,0,0,0,.07-.07l0-.08h0a.2.2,0,0,0,0-.13A.19.19,0,0,0,116.5,27.13Z" style="fill:#4d4c51"/><path d="M113.17,26.06l0-.08-.07-.09a.1.1,0,0,0,0,0l-.11,0h-.09a.23.23,0,0,0-.11,0h-.08a.21.21,0,0,0-.11,0,.18.18,0,0,0-.07.05.21.21,0,0,0-.06.1l0,.08a.29.29,0,0,0,0,.16.31.31,0,0,0,0,.1.6.6,0,0,0,.08.08.53.53,0,0,0,.1.06h0l.1,0a.39.39,0,0,0,.18,0l.06-.05,0,0h0l0,0h0l0,0,0,0,0-.08h0l0-.08Z" style="fill:#4d4c51"/><path d="M117.12,25.44a.27.27,0,0,0-.1-.08.17.17,0,0,0-.1,0,.12.12,0,0,0-.1,0,.21.21,0,0,0-.11.08.43.43,0,0,0,0,.12.34.34,0,0,0,0,.14l0,0,0,.05,0,0,.06,0a.15.15,0,0,0,.09,0H117l.05,0a.1.1,0,0,0,0,0,.22.22,0,0,0,0-.08l0,0a.3.3,0,0,0,0-.13A.31.31,0,0,0,117.12,25.44Z" style="fill:#4d4c51"/><path d="M114,22.49a.37.37,0,0,0-.08-.18l-.1-.1a.52.52,0,0,0-.26-.1h0a.42.42,0,0,0-.22,0l-.08,0h0l-.1.05a.47.47,0,0,0-.19.15s0,0,0,.07l0,0,0,.08a.5.5,0,0,0,0,.12.11.11,0,0,0,0,.08.11.11,0,0,0,0,.08l0,0s0,.06,0,.09a.7.7,0,0,0,.19.15l.11.05,0,0,.11.05a.32.32,0,0,0,.14,0h.09a.33.33,0,0,0,.19-.08.34.34,0,0,0,.16-.13l.07-.12a.39.39,0,0,0,0-.21A.23.23,0,0,0,114,22.49Z" style="fill:#4d4c51"/><path d="M111.94,23.62a.25.25,0,0,0,0-.09l-.06-.05-.06,0a.2.2,0,0,0-.11,0h-.07a.11.11,0,0,0-.07,0,.18.18,0,0,0-.08.07l0,.06,0,.07v.08a.21.21,0,0,0,0,.1.18.18,0,0,0,.07.08l0,0,.06,0h.15a.12.12,0,0,0,.08,0h0l.05-.05a.21.21,0,0,0,0-.1.11.11,0,0,0,0-.08A.17.17,0,0,0,111.94,23.62Z" style="fill:#4d4c51"/><path d="M175.25,14.17c5.77.56,11.51,1.42,17.22,2.42a.42.42,0,0,0,.12.15L194,17.88a.24.24,0,0,0,.15.25,2.27,2.27,0,0,1,.25.06c.94.73,1.88,1.46,2.81,2.2a43.91,43.91,0,0,0,3.43,8.48,57.5,57.5,0,0,0,5.47,8.64,60.86,60.86,0,0,0,14.92,13.85,53.78,53.78,0,0,0,4.86,2.86,39.4,39.4,0,0,0,5.3,2.39.44.44,0,0,0,.36,0,.16.16,0,0,0,.16-.17.41.41,0,0,0-.2-.58l-.32-.15c-.51-.71-1-1.46-1.46-2.19-.63-1-1.2-2-1.75-3-1.09-2-2-4.11-3-6.18-1.78-3.83-3.68-7.68-6.51-10.85a16.53,16.53,0,0,0-5.08-4,.18.18,0,0,0,0-.23c-1.12-1-2.3-2-3.4-3s-2.13-2.11-3.26-3.09a23.3,23.3,0,0,0-7.7-4.49,17.66,17.66,0,0,0-3.85-1l-1-.81c3.52.63,7,1.3,10.54,2l2,.38c.26.14.54.26.79.4.54.28,1.08.58,1.6.91,1,.6,1.9,1.25,2.8,1.94s1.8,1.48,2.65,2.29c.42.4.83.82,1.24,1.23A12.76,12.76,0,0,0,217,27.22a.16.16,0,0,0,.24-.19h0a10.92,10.92,0,0,0-2.21-2.63c-.38-.37-.77-.73-1.16-1.08l1,.39c1,.33,1.91.64,2.88.92a.18.18,0,0,0,.14-.34c-.9-.43-1.82-.84-2.74-1.23l-1.4-.56-.7-.27a1.2,1.2,0,0,0-.69-.15h0l-.07-.06A31.51,31.51,0,0,0,209.42,20l-.55-.33c3.23.61,6.46,1.21,9.71,1.76l1.07.44h0a13,13,0,0,1,3.16,3.75,30.85,30.85,0,0,1,2,5.07,60.32,60.32,0,0,0,4.15,10,53.25,53.25,0,0,0,5.71,8.75,20.08,20.08,0,0,0,7.87,6.09A27.85,27.85,0,0,0,247.94,57a47.19,47.19,0,0,0,5.68.74l.33.1c.31.08.42-.3.28-.51a.44.44,0,0,0-.39-.5l-.67-.1a23.39,23.39,0,0,1-3.39-2.06,24.23,24.23,0,0,1-3.68-3.48,50.09,50.09,0,0,1-5.86-8.94,88.65,88.65,0,0,0-5.83-9.86,32.66,32.66,0,0,0-7.34-7.27,33.31,33.31,0,0,0-4.92-2.91l-.82-.37c4.12.64,8.27,1.18,12.43,1.54l1.53.11s0,.05,0,.07c.46.26.94.51,1.42.75a26.67,26.67,0,0,0,5.51,6.59,31.73,31.73,0,0,0,8.44,5.48,35.8,35.8,0,0,0,10.93,2.67c4.08.39,8.18.38,12.26.68l.1.09a.34.34,0,0,0,.5,0c2.34.19,4.68.45,7,.81,1.19.18,2.37.39,3.55.62.89.17,1.8.44,2.71.57L288,42a.34.34,0,0,0,.5-.1h.14a.38.38,0,0,0,.19-.73,5.16,5.16,0,0,0-.78-.28c-1-.79-2-1.5-3-2.21-1.21-.85-2.46-1.64-3.7-2.43q-3.64-2.31-7.4-4.41c-2.57-1.44-5.21-2.79-7.87-4.08a59,59,0,0,0-7.89-3.26c-.75-.24-1.51-.45-2.28-.64,1.87-.09,3.73-.2,5.6-.34,4.73-.38,9.45-.95,14.13-1.72a12.53,12.53,0,0,0,4.47,6,21.17,21.17,0,0,0,7.3,3.62c6.75,1.89,13.89,1.07,20.78,2a53.9,53.9,0,0,1,10.47,2.49c.16.07.32.15.49.21a.3.3,0,0,0,.16,0l.37.13a.42.42,0,0,0,.44-.08.3.3,0,0,0,.28-.46,31.58,31.58,0,0,0-12-11,44,44,0,0,0-17.62-4.83c-1.56-.11-3.13-.14-4.7-.12,1-.22,1.93-.43,2.9-.67a165.63,165.63,0,0,0,20.59-6.4.52.52,0,0,0,.18.1,77.86,77.86,0,0,0,16.24,3.42,1.48,1.48,0,0,0,.06.55,1.2,1.2,0,0,0,.24.46,1.27,1.27,0,0,0,.51.38,1.17,1.17,0,0,0,.52.05h.11a1.32,1.32,0,0,0,1.21-1.52,1.34,1.34,0,0,0-.7-1,1.38,1.38,0,0,0-.34-.12,1.43,1.43,0,0,0-1.33.46.92.92,0,0,0-.18.3,80.8,80.8,0,0,1-15.19-3.64c1.48-.59,2.95-1.19,4.4-1.83,1.07-.47,2.11-1,3.16-1.5a.29.29,0,0,0-.23-.53c-4.28,1.73-8.54,3.49-12.89,5s-8.85,2.93-13.35,4.12c-3.8,1-7.64,1.86-11.5,2.6-.25,0-.5.08-.75.14h0c-2,.37-4,.73-6.05,1,1.86-.49,3.7-1.06,5.5-1.72a59.14,59.14,0,0,0,7.22-3.24h.11a.26.26,0,0,0,.25-.17c.86-.46,1.71-.95,2.55-1.45a99.09,99.09,0,0,0,9-6.5,37.62,37.62,0,0,1,9.34-5.7l.72-.05a.37.37,0,0,0,.37-.33,1.06,1.06,0,0,1,.19-.06c.51-.16.18-.95-.34-.78-.3.09-.6.21-.9.31a106.82,106.82,0,0,0-22.29,3.34,51.77,51.77,0,0,0-10.59,4.22,70.07,70.07,0,0,0-9.47,6.47c-1.7,1.32-3.39,2.66-5.13,3.93-1.52,1.11-3.11,2.1-4.69,3.11-1,.21-2.08.37-3.13.51-.75,0-1.5,0-2.26,0H250q-5.91.07-11.83-.25c.68-.25,1.36-.52,2-.79q2.15-.87,4.23-1.88c1.23-.59,2.42-1.21,3.61-1.86l.05,0c1.56.19,3.11.4,4.68.44a.24.24,0,0,0,.07-.48c-1.21-.28-2.45-.45-3.69-.61q1.7-1,3.33-2c.16-.1,0-.36-.16-.28-2.73,1.41-5.49,2.8-8.31,4-1.42.62-2.84,1.21-4.28,1.78l-2.16.83a10.89,10.89,0,0,0-1.8.68c-3.69-.26-7.36-.67-11-1.17A28.62,28.62,0,0,0,235,18.81,30,30,0,0,0,242,14c2.06-1.85,4-3.86,6-5.75a42.92,42.92,0,0,1,3.48-3A22,22,0,0,1,253.37,4l.06,0c.66-.39,1.34-.75,2-1.09a.32.32,0,0,0,.19-.33.34.34,0,0,0-.38-.54l-.58.3c-6,0-12.22.79-17.38,4.1-1.39.89-2.7,1.9-4.09,2.8a19.2,19.2,0,0,1-4.44,2.1c-3.1,1-6.34,1.48-9.41,2.55a32.17,32.17,0,0,0-4.91,2.18A24.61,24.61,0,0,0,210,19a.36.36,0,0,0-.07.1l-1.73-.32-1.12-.21a2,2,0,0,0-.72-.22.26.26,0,0,0-.17.05c-4.38-.83-8.76-1.68-13.16-2.43a.36.36,0,0,0-.2,0l-2.25-.37a18.58,18.58,0,0,0,2.67-.44,21.89,21.89,0,0,0,3,.05c1.11,0,2.22-.06,3.33-.17a19.6,19.6,0,0,0,6.55-1.72c2.13-1,3.85-2.69,5.84-3.95s4.31-2,6.32-3.3A7.46,7.46,0,0,0,222,.82l.21-.1c.41-.22.11-.9-.29-.67C218,2.3,213.45,3,209.14,4.21a28.88,28.88,0,0,0-5.89,2.29l-.18.11c-.13,0-.27.12-.39.24a21.45,21.45,0,0,0-4.18,3.37,20.27,20.27,0,0,1-5.12,4.2.18.18,0,0,0-.1.17,20.41,20.41,0,0,1-4.72.71c-3.18-.48-6.36-.89-9.55-1.17-1.24-.11-2.48-.2-3.73-.27A.16.16,0,0,0,175.25,14.17ZM201.81,8a6.19,6.19,0,0,0-.36.67,6.11,6.11,0,0,0-.5,1.93c-.77.54-1.53,1.08-2.32,1.58,0,0-.06,0-.07.05a20.16,20.16,0,0,1-2.08,1.17c-.53.26-1.07.48-1.63.69a18.75,18.75,0,0,0,3.23-2.74A31.1,31.1,0,0,1,201.81,8Zm8.82-3.6c-.28.2-.57.39-.83.61a13.67,13.67,0,0,0-1.06.94,3.87,3.87,0,0,0-.47.52.82.82,0,0,0-.11.21,22.82,22.82,0,0,0-5.57,2.77l-1.24.86a7.36,7.36,0,0,1,1.54-3l.06-.07A28.85,28.85,0,0,1,210.63,4.4ZM221,1.29a17.54,17.54,0,0,1-2,1.61,14.54,14.54,0,0,1-3,1.51c-2.25.86-4.63,1.29-6.94,2l.1-.1c.32-.33.65-.63,1-.92a11.66,11.66,0,0,1,1.06-.79c.28-.18.57-.35.86-.52,1-.25,2-.49,3-.75A35.73,35.73,0,0,0,221,1.29Zm-9.9,7.19c-.73.08-1.46.14-2.19.17-1.22.06-2.44,0-3.66,0a18.86,18.86,0,0,1,3.35-1.43c2.41-.76,4.92-1.17,7.3-2a12.25,12.25,0,0,0,5-3,8,8,0,0,1-2.87,3.2c-1.69,1.13-3.62,1.83-5.4,2.82C212.14,8.29,211.59,8.43,211.09,8.48ZM206.76,12a10.79,10.79,0,0,0-1.86.25,20.6,20.6,0,0,1-2.07.16,24.42,24.42,0,0,1-3.2-.17c.77-.5,1.54-1,2.3-1.56.93-.64,1.85-1.24,2.81-1.79a24.91,24.91,0,0,0,4,.16c.73,0,1.47-.09,2.2-.16l.69-.09c-1.64,1.08-3.11,2.41-4.79,3.42C206.92,12.16,206.89,12.05,206.76,12Zm-12,2.69.88-.31a21.66,21.66,0,0,0,3.51-1.83,16.24,16.24,0,0,0,3.61.34,20.56,20.56,0,0,0,2.07-.14,7,7,0,0,0,1.75-.34l-.09.06a18,18,0,0,1-6.33,1.93,36,36,0,0,1-3.74.27C195.86,14.73,195.3,14.73,194.75,14.73Zm100.59,6.51c-.64.12-1.29.26-1.93.42A17.07,17.07,0,0,0,289.67,23s0,0,0,0l-1.07-.29c-2.69-.71-5.4-1.32-8.15-1.76l.95-.19.6-.05c.8-.06,1.59-.09,2.39-.12,1.64,0,3.29,0,4.93,0A52.92,52.92,0,0,1,295.34,21.24Zm10,3c-1.13.1-2.25.22-3.37.39-.7.11-1.4.22-2.09.35a4.18,4.18,0,0,0-2,.57s0,0,0,.06q-3.82-1.35-7.73-2.45c1.14-.29,2.25-.65,3.4-.92.63-.15,1.26-.29,1.9-.41s1-.15,1.53-.23c.6.12,1.21.24,1.81.39A40.1,40.1,0,0,1,305.38,24.19Zm10.43,9.2c-1.22-.64-2.45-1.27-3.69-1.88q-3.8-1.85-7.7-3.47c-1.87-.77-3.77-1.49-5.68-2.18.43,0,.89-.18,1.28-.24l2.1-.3c1.45-.18,2.91-.34,4.38-.45a.33.33,0,0,0,.2-.08,35.84,35.84,0,0,1,7.06,4.51,33.18,33.18,0,0,1,5.56,5.86l-.85-.28C317.62,34.33,316.7,33.87,315.81,33.39Zm-14-1.34c-.25-.44-.58-.84-.86-1.27s-.61-1-.88-1.53c-.39-.76-.73-1.56-1-2.35,4,1.47,8,3.14,11.81,5,1.23.59,2.45,1.21,3.66,1.84-1.44-.36-2.9-.68-4.36-.92A68.23,68.23,0,0,0,301.83,32.05Zm-10.56-.67a46.52,46.52,0,0,0-3-5.16,18.24,18.24,0,0,0-1.89-2.32,10.59,10.59,0,0,0-1.57-1.4c3.6.95,7.19,2,10.72,3.15,1,.33,2,.69,2.94,1.05a15.29,15.29,0,0,0,1.12,2.83,17.45,17.45,0,0,0,.86,1.52c.2.32.4.66.63,1l-1.22,0A77.15,77.15,0,0,1,291.27,31.38Zm-15.15-9.7c1.1-.18,2.21-.36,3.3-.57l4.46,1.14a.08.08,0,0,0,0,.07,8.24,8.24,0,0,0,1,.93c.37.33.74.67,1.08,1a19,19,0,0,1,1.82,2.28,40.39,40.39,0,0,1,2.68,4.7,23,23,0,0,1-8.81-3.18,15.2,15.2,0,0,1-3.4-2.9A16,16,0,0,1,276.12,21.68Zm6.57-15.1a16.55,16.55,0,0,0-2.06,2.71A13.06,13.06,0,0,0,279,12.87c-2.68,1.43-5.35,2.85-8.08,4.16.12-.45.24-.9.4-1.35a17.68,17.68,0,0,1,.93-2.2,17.08,17.08,0,0,1,1.21-2.06c.21-.31.43-.61.66-.91.1-.14.22-.27.33-.41A51.53,51.53,0,0,1,282.69,6.58Zm19-3.7c-1.77.46-3.51,1-5.2,1.65A97.9,97.9,0,0,0,285.2,9.61c-1.84,1-3.66,1.93-5.49,2.9a18.65,18.65,0,0,1,1.39-2.93,14.49,14.49,0,0,1,2.67-3.22.32.32,0,0,0,.09-.17,75.32,75.32,0,0,1,11.58-2.57C297.52,3.31,299.62,3.08,301.71,2.88Zm-6.43,5.9c-.5.12-1,.23-1.51.33-1,.2-2.08.37-3.13.51-1.51.19-3,.24-4.56.35,2.88-1.46,5.8-2.84,8.81-4a59.69,59.69,0,0,1,6.5-2.17c.95-.26,1.9-.48,2.86-.68a58.57,58.57,0,0,0-7.94,5.5A3.3,3.3,0,0,0,295.28,8.78Zm-9.43,6.85c-2,.09-4,.19-5.93.23-1.06,0-2.12,0-3.18.06h-1.69c-.15,0-.29,0-.43,0,3.43-1.76,6.82-3.6,10.25-5.37a24.63,24.63,0,0,0,5.88-.26c1.05-.13,2.09-.3,3.13-.5.38-.07.75-.16,1.12-.24-1.5,1.17-3,2.32-4.6,3.35S287.41,14.8,285.85,15.63Zm-27.76,7c1-.27,2.07-.55,3.09-.87A73.81,73.81,0,0,0,270.47,18a.18.18,0,0,0,.24-.11h0l2-.95,1-.5a13,13,0,0,0,1.41.13h1.68c1.06,0,2.11,0,3.17,0,1.5,0,3-.09,4.49-.17a58.34,58.34,0,0,1-14.8,5.06A70.88,70.88,0,0,1,258.09,22.61Zm-.93-.39c.88-.53,1.73-1.12,2.57-1.7,1.58-1.11,3.12-2.28,4.65-3.45a88,88,0,0,1,8.77-6.22l-.1.14a19.73,19.73,0,0,0-1.21,2.15,20.49,20.49,0,0,0-.92,2.28,14.92,14.92,0,0,0-.52,1.88,81.6,81.6,0,0,1-7.53,3.18A55.17,55.17,0,0,1,257.16,22.22Zm23.21,14.29-1-.47a75.38,75.38,0,0,0-10.15-3.46c-3.91-1.06-7.87-1.9-11.82-2.76,1.13,0,2.27-.1,3.4-.2s2-.2,3-.35a25.38,25.38,0,0,0,2.61-.44c4.73,2.32,9.35,4.88,13.84,7.62Zm-8,.62L270.16,35l-1.69-1.66a82.83,82.83,0,0,1,9,3,53.53,53.53,0,0,1,5.37,2.52c.84.46,1.66,1,2.47,1.48-.88-.16-1.75-.31-2.63-.45q-3.15-.49-6.33-.8c-.76-.07-1.52-.11-2.28-.16C273.53,38.28,272.93,37.71,272.35,37.13Zm-14.67.56a19.15,19.15,0,0,0-3.4-5.08,20.68,20.68,0,0,0-4.63-3.87c2.31.6,4.64,1.14,7,1.67,3.52.81,7.06,1.6,10.55,2.52a9.89,9.89,0,0,1,.79.8c.67.7,1.35,1.39,2,2.08l2,2c.32.32.63.65.95,1-3-.16-6-.21-9-.4A49.75,49.75,0,0,1,257.68,37.69Zm-20-12.93c.9.41,1.81.77,2.73,1.13,1.72.66,3.47,1.24,5.24,1.76,1.14.34,2.28.65,3.42,1a.14.14,0,0,0,0,.21,24.9,24.9,0,0,1,4.75,4.12,24.53,24.53,0,0,1,1.86,2.44c.46.71.85,1.44,1.24,2.19a29.52,29.52,0,0,1-4.5-1.27,31,31,0,0,1-8.65-4.91,30.7,30.7,0,0,1-4.06-3.92C239,26.6,238.35,25.68,237.69,24.76Zm-.82-1.14c4.87.32,9.76.43,14.64.34.53,0,1.07.09,1.61.16a27.52,27.52,0,0,1,4.1.9,53,53,0,0,1,7.92,3.17l.44.22c-.61.11-1.22.23-1.84.31-1,.15-2,.27-3,.38-1.7.16-3.4.26-5.11.33-2.7-.61-5.4-1.24-8.08-2q-3-.84-6-1.89c-1.51-.53-3-1.14-4.46-1.75Zm3.79-18.21c-.28.3-.54.62-.79.91a22.16,22.16,0,0,0-1.61,2.14,21.24,21.24,0,0,0-2.16,4.25c-3.06,1.58-6.16,3.07-9.33,4.41,0,0,0,0,0-.05.19-.49.41-1,.61-1.45s.43-1,.67-1.43.52-.93.8-1.38.46-.66.68-1a17.87,17.87,0,0,0,2.79-1.25A46.69,46.69,0,0,0,236.29,8a26.7,26.7,0,0,1,4.12-2.46Zm10.67-1.14-4,2.32c-2.63,1.5-5.28,3-7.95,4.41l-2.67,1.4a22.25,22.25,0,0,1,2.05-3.66,22,22,0,0,1,1.53-1.93c.58-.65,1.28-1.2,1.84-1.85a.36.36,0,0,0,.07-.17A27.57,27.57,0,0,1,244.86,4a42.72,42.72,0,0,1,8.81-1.08C252.88,3.35,252.11,3.82,251.33,4.27ZM239.75,15c-.67,0-1.35.14-2,.2s-1.44.11-2.16.14c-1.21,0-2.43.06-3.65,0,5-2.28,9.84-4.81,14.62-7.5l2.33-1.34-.25.23c-2,1.8-3.9,3.77-5.87,5.63C241.78,13.35,240.78,14.22,239.75,15Zm-5.22,19.14c-.34-.09-.69-.18-1-.25a9.17,9.17,0,0,0-2.15-.26c-1.12-1.76-2.25-3.52-3.4-5.26a23.87,23.87,0,0,0-2.86-3.7c.28.19.56.37.83.57a32.67,32.67,0,0,1,7.48,7.27C233.79,33.09,234.16,33.63,234.53,34.18Zm12.55,20.7a15.73,15.73,0,0,1-3.24-2.57,41.87,41.87,0,0,1-5.29-7.24q-3.48-5.52-7-11c.59.16,1.18.28,1.77.43s1.14.31,1.7.5c3.45,5.4,5.86,11.46,10,16.41a23.57,23.57,0,0,0,5.17,4.78A13.44,13.44,0,0,1,247.08,54.88ZM234,43.71a15.82,15.82,0,0,1,.23-1.8c.09-.55.27-1.1.36-1.66,1.06,1.69,2.11,3.38,3.17,5.06A44.6,44.6,0,0,0,243,52.63a17.06,17.06,0,0,0,3.55,2.9l.64.36a28.24,28.24,0,0,1-3.39-.91,18.78,18.78,0,0,1-8.13-5.71c-.52-.61-1-1.24-1.5-1.88A18.13,18.13,0,0,1,234,43.71Zm-5.89-6.94a15.82,15.82,0,0,1,0-3.37c.07-.53.16-1,.28-1.58.08-.34.19-.69.29-1,1.23,2,2.44,4,3.67,5.93l2,3.2a.22.22,0,0,0-.19.12,8.06,8.06,0,0,0-.48,1.81,14.71,14.71,0,0,0-.24,1.87,16.73,16.73,0,0,0,0,2.74,57,57,0,0,1-3.71-5.93c-.63-1.15-1.21-2.33-1.76-3.52A.31.31,0,0,0,228.13,36.77Zm-6.85-14.2.12.05c.53.26,1,.53,1.54.81a19.51,19.51,0,0,1,4.33,5c.39.6.76,1.21,1.14,1.82a7.81,7.81,0,0,0-.48,1.41,15.4,15.4,0,0,0-.34,1.64,15.12,15.12,0,0,0-.15,2.33q-1-2.38-1.87-4.84a30.5,30.5,0,0,0-2.28-5.65A10.72,10.72,0,0,0,221.28,22.57Zm-3.94-2.12a17.93,17.93,0,0,0,3.84-.71,69.38,69.38,0,0,0,8.69-3.37c.42-.18.82-.38,1.24-.57a33.7,33.7,0,0,0,4.38.18c.75,0,1.5-.07,2.24-.14l1.05-.09a27.09,27.09,0,0,1-2.73,1.77,28,28,0,0,1-8.08,3,29.85,29.85,0,0,1-7,.53Zm-6.51-1.15c1.17-.81,2.32-1.65,3.57-2.35a31.9,31.9,0,0,1,4.26-2c3-1.17,6.19-1.69,9.29-2.58l.68-.21-.26.44c-.27.46-.53.93-.77,1.41s-.44.95-.63,1.44A14,14,0,0,0,226.5,17c0,.11.08.17.18.17-1.26.52-2.52,1-3.81,1.5a22.64,22.64,0,0,1-4.93,1.28,11.8,11.8,0,0,1-2.45.08c-.83-.07-1.63-.3-2.46-.42a.08.08,0,0,0-.08.09C212.24,19.57,211.53,19.43,210.83,19.3Zm10.39,19.27a53.65,53.65,0,0,0-6.31-3c-2-2.27-4-4.42-6.22-6.48l.4,0c.41,0,.82.06,1.24.11.78.09,1.55.21,2.32.36a.33.33,0,0,0,.16.33,20.34,20.34,0,0,1,4.9,3.85A28.24,28.24,0,0,1,221.22,38.57Zm8.57,16.09C225.24,50,221.85,44.52,218,39.33c-.81-1.08-1.65-2.12-2.52-3.14,2.05,1.06,4.19,2,6.18,3.13h0c2,3.61,3.54,7.48,5.49,11.13A33.61,33.61,0,0,0,229,53.57C229.25,54,229.52,54.31,229.79,54.66ZM211.5,40.73c-.3-1.07-.56-2.15-.76-3.24a41.26,41.26,0,0,1-.64-6A78.22,78.22,0,0,1,216.81,39c2.13,2.75,4.06,5.66,6.11,8.47a43.3,43.3,0,0,0,6.43,7.35c-.8-.35-1.6-.71-2.38-1.1-1.5-.76-3-1.58-4.42-2.46a57.54,57.54,0,0,1-8.06-6c-.74-.66-1.46-1.34-2.16-2-.1-.29-.22-.58-.31-.87C211.83,41.83,211.66,41.28,211.5,40.73Zm-6.8-14.2c1.61,1.4,3.2,2.83,4.74,4.32l.24.25a34.31,34.31,0,0,0,.52,6.47c.19,1.07.42,2.14.71,3.19.13.5.27,1,.43,1.49a60.75,60.75,0,0,1-5.7-6.82c-.2-.69-.46-1.36-.62-2.06a19.38,19.38,0,0,1-.4-2.38A20.15,20.15,0,0,1,204.7,26.53Zm-6.76-5.6c2.16,1.72,4.3,3.47,6.39,5.28a18.17,18.17,0,0,0-.27,4.77,20,20,0,0,0,.37,2.56c0,.07,0,.14,0,.21-.88-1.32-1.72-2.67-2.49-4.05A73.14,73.14,0,0,1,197.94,20.93Zm-1.61-2.35c.73.16,1.44.36,2.15.59a23.12,23.12,0,0,1,4,1.75,35.8,35.8,0,0,1,6.9,5.62,22.34,22.34,0,0,0,2.82,2.4c-.59-.11-1.19-.21-1.79-.27-.41,0-.83-.07-1.24-.09a4,4,0,0,0-1,0q-2.64-2.47-5.4-4.81C200.66,22,198.5,20.28,196.33,18.58Z" style="fill:#4d4c51"/><path d="M320.05,6.63a1.35,1.35,0,0,1,.37-.48,1.64,1.64,0,0,1,.33-.26l.14-.06c.1,0,.2,0,.3-.06a1.33,1.33,0,0,1,1,.33,1.35,1.35,0,0,1,.33.45,1.19,1.19,0,0,1,.11.41,1.57,1.57,0,0,1-.25.94,1.29,1.29,0,0,1-.82.52,1.19,1.19,0,0,1-.42,0,.93.93,0,0,1-.4-.12,1.31,1.31,0,0,1-.67-.68A1.35,1.35,0,0,1,320.05,6.63Z" style="fill:#4d4c51"/><path d="M319.49,9.59l0,0h0l.05-.08h0l0-.06,0,0-.06.1Z" style="fill:#4d4c51"/><path d="M319.38,9.84a.62.62,0,0,1,.11-.25.75.75,0,0,1,.15-.2l-.08.08.09-.09h0l0,0a.82.82,0,0,1,.36-.15.73.73,0,0,1,.39.06.76.76,0,0,1,.3.23.82.82,0,0,1,.15.36.89.89,0,0,1-.06.39.73.73,0,0,1-.59.44H320l-.18-.05h0l-.16-.1h0a.6.6,0,0,1-.18-.21.62.62,0,0,1-.09-.27Z" style="fill:#4d4c51"/><path d="M319.51,9.54a0,0,0,0,0,0,0l0,0h0Z" style="fill:#4d4c51"/><path d="M319.45,9.64s0,0,0,0l0,0Z" style="fill:#4d4c51"/><path d="M317.63,6.34a.33.33,0,0,1,.1-.14.3.3,0,0,1,.13-.09s0,0,0,0h0l.08,0h.1l.09,0h0l.09.06a.46.46,0,0,1,.14.17l0,.12a.57.57,0,0,1,0,.22l-.05.1a.59.59,0,0,1-.18.13.47.47,0,0,1-.17,0,.41.41,0,0,1-.16,0,.36.36,0,0,1-.14-.1.34.34,0,0,1-.09-.14.25.25,0,0,1,0-.17A.23.23,0,0,1,317.63,6.34Z" style="fill:#4d4c51"/><path d="M323.86,17.8a.79.79,0,0,1,.14-.34l.14-.14a.83.83,0,0,1,.35-.14.67.67,0,0,1,.28,0,.58.58,0,0,1,.25.12.6.6,0,0,1,.18.21.51.51,0,0,1,.09.27V18a.85.85,0,0,1-.14.34l-.14.13a.72.72,0,0,1-.35.14.45.45,0,0,1-.28,0,.58.58,0,0,1-.25-.12.52.52,0,0,1-.18-.21.51.51,0,0,1-.09-.27Z" style="fill:#4d4c51"/><path d="M324.49,14h0a.2.2,0,0,1,.05-.09l.08-.08a.35.35,0,0,1,.14-.06.33.33,0,0,1,.17,0l.1,0a.55.55,0,0,1,.17.13l.05.1a.29.29,0,0,1,0,.16.45.45,0,0,1,0,.16.44.44,0,0,1-.22.22l-.11,0a.78.78,0,0,1-.22,0l-.09-.06a.45.45,0,0,1-.13-.17.11.11,0,0,1,0-.06.26.26,0,0,1,0-.15Z" style="fill:#4d4c51"/><path d="M320.07,17.16a.66.66,0,0,1,.13-.31l.12-.11a.61.61,0,0,1,.31-.13.46.46,0,0,1,.26,0,.65.65,0,0,1,.22.11.58.58,0,0,1,.16.19.41.41,0,0,1,.08.24v.18a.67.67,0,0,1-.13.3l-.12.12a.66.66,0,0,1-.31.13.58.58,0,0,1-.26,0,.51.51,0,0,1-.22-.11.49.49,0,0,1-.16-.19.41.41,0,0,1-.08-.24Z" style="fill:#4d4c51"/><path d="M327.75,13l0-.06a.54.54,0,0,1,.06-.25.82.82,0,0,1,1-.39,1,1,0,0,1,.61.79,1,1,0,0,1-.06.51.92.92,0,0,1-.31.41,1,1,0,0,1-.47.17.76.76,0,0,1-.26,0A1.07,1.07,0,0,1,328,14l0,0-.13-.13a.74.74,0,0,1-.13-.29.85.85,0,0,1,0-.32A.76.76,0,0,1,327.75,13Z" style="fill:#4d4c51"/><path d="M328.29,19.15a1.35,1.35,0,0,1,.62-.89,1.4,1.4,0,0,1,.6-.22,1.29,1.29,0,0,1,.61.1,1.33,1.33,0,0,1,.71.78,1.39,1.39,0,0,1,0,.7,1.08,1.08,0,0,1-.37,1,1.3,1.3,0,0,1-1,.24,1.46,1.46,0,0,1-.94-.59,1.67,1.67,0,0,1-.25-.6A1.1,1.1,0,0,1,328.29,19.15Z" style="fill:#4d4c51"/><path d="M325.84,19.86a.62.62,0,0,1,.11-.25l.09-.09a.49.49,0,0,1,.26-.1.34.34,0,0,1,.2,0,.37.37,0,0,1,.18.08.48.48,0,0,1,.13.16.44.44,0,0,1,.07.19V20a.62.62,0,0,1-.11.25l-.09.09a.49.49,0,0,1-.26.1.28.28,0,0,1-.2,0,.37.37,0,0,1-.18-.08.34.34,0,0,1-.13-.16.4.4,0,0,1-.07-.19Z" style="fill:#4d4c51"/><path d="M329.92,16.15a.24.24,0,0,1,.06-.09l.09-.06a.39.39,0,0,1,.15,0l.1,0a.27.27,0,0,1,.08.07.35.35,0,0,1,.06.14.32.32,0,0,1,0,.14v0a.18.18,0,0,1-.08.09.1.1,0,0,1-.05,0h-.05a.17.17,0,0,1-.12,0,.29.29,0,0,1-.13-.05.31.31,0,0,1-.07-.09.17.17,0,0,1,0-.1A.26.26,0,0,1,329.92,16.15Z" style="fill:#4d4c51"/><path d="M253.37,14.51a1.13,1.13,0,0,1,.08-.24,1.09,1.09,0,0,1,.23-.29.87.87,0,0,1,1-.13,1.07,1.07,0,0,1,.22.15,1.19,1.19,0,0,1,.23.31,1.21,1.21,0,0,1,.08.25.33.33,0,0,1,0,.14.75.75,0,0,1,0,.15,1,1,0,0,0,0,.1.87.87,0,0,1-.54.62,1,1,0,0,1-.5,0,1,1,0,0,1-.45-.2A.91.91,0,0,1,253.37,14.51Z" style="fill:#4d4c51"/><path d="M251.48,13.65a.6.6,0,0,1,.1-.25l.1-.09a.51.51,0,0,1,.24-.1.44.44,0,0,1,.2,0,.31.31,0,0,1,.18.09.37.37,0,0,1,.13.15.31.31,0,0,1,.06.19v.14a.62.62,0,0,1-.1.24l-.09.09a.6.6,0,0,1-.25.1.44.44,0,0,1-.2,0,.31.31,0,0,1-.18-.09.35.35,0,0,1-.12-.15.32.32,0,0,1-.07-.19Z" style="fill:#4d4c51"/><path d="M253.23,16c.33,0,.4.53.06.53S252.88,16,253.23,16Z" style="fill:#4d4c51"/><path d="M253.52,19.32a.28.28,0,0,1,0-.09,1.21,1.21,0,0,1,0-.19h0s0,0,0,0a.23.23,0,0,1,0-.11s0,0,0,0a1,1,0,0,1,.29-.44.89.89,0,0,1,.7-.19,1,1,0,0,1,.65.37.9.9,0,0,1,.19.72,1,1,0,0,1-.18.41,1.14,1.14,0,0,1-.15.16L255,20a1.1,1.1,0,0,1-.42.17h-.09a.59.59,0,0,1-.23,0,.82.82,0,0,1-.39-.18s0-.05-.06-.07a.67.67,0,0,1-.15-.14s0,0,0-.06h0a.76.76,0,0,1-.11-.33Z" style="fill:#4d4c51"/><path d="M247.16,15.3a.79.79,0,0,1,.12-.3l.12-.11a.56.56,0,0,1,.3-.12.42.42,0,0,1,.25,0,.62.62,0,0,1,.22.1.7.7,0,0,1,.15.19.49.49,0,0,1,.08.23v.17a.67.67,0,0,1-.13.3l-.11.11a.56.56,0,0,1-.3.12.42.42,0,0,1-.25,0,.51.51,0,0,1-.22-.11.52.52,0,0,1-.15-.18.4.4,0,0,1-.08-.23Z" style="fill:#4d4c51"/><path d="M249.17,21.34a.5.5,0,0,0,.08.2s0,0,0,0,0,0,0,0l0,0a.24.24,0,0,0,.11.09.29.29,0,0,0,.13.05h.1l.1,0a.28.28,0,0,0,.12-.08.18.18,0,0,0,.05-.07.24.24,0,0,0,.05-.14v-.1l0-.11h0a.3.3,0,0,0,0-.13h0a.46.46,0,0,0-.13-.18.5.5,0,0,0-.2-.08h0a.53.53,0,0,0-.22,0,.45.45,0,0,0-.17.13l-.06.1A.41.41,0,0,0,249.17,21.34Z" style="fill:#4d4c51"/><path d="M217.19,28.56a.62.62,0,0,1,.14-.32l.12-.12,0,0,0,0a.51.51,0,0,1,.22-.11.5.5,0,0,1,.17,0,.3.3,0,0,1,.16,0,.25.25,0,0,1,.14.06.38.38,0,0,1,.18.15h0l.09.14h0l0,.17h0v0a.27.27,0,0,1,0,.09v.06h0v0s0,0,0,.08a.55.55,0,0,1-.11.23.54.54,0,0,1-.2.17.58.58,0,0,1-.26.09.46.46,0,0,1-.26,0,.44.44,0,0,1-.24-.11l-.12-.12a.68.68,0,0,1-.13-.33Z" style="fill:#4d4c51"/><path d="M214.39,27.13l.05-.08a.26.26,0,0,1,.13-.1h0a.46.46,0,0,1,.2,0,.21.21,0,0,1,.13,0,.31.31,0,0,1,.11.09l0,.08a.4.4,0,0,1,0,.19.32.32,0,0,1,0,.09l0,.07h0a.28.28,0,0,1-.1.09.34.34,0,0,1-.14.05h-.1a.36.36,0,0,1-.17-.07l-.06-.07,0-.08h0a.2.2,0,0,1,0-.13A.19.19,0,0,1,214.39,27.13Z" style="fill:#4d4c51"/><path d="M217.72,26.06l0-.08a.47.47,0,0,1,.06-.09l.06,0,.11,0h.09a.19.19,0,0,1,.1,0h.09a.21.21,0,0,1,.11,0,.1.1,0,0,1,.06.05.17.17,0,0,1,.07.1l0,.08a.29.29,0,0,1,0,.16.21.21,0,0,1-.06.1l-.08.08a.33.33,0,0,1-.1.06h0l-.1,0a.39.39,0,0,1-.18,0l-.06-.05,0,0h0l0,0h0s0,0,0,0l0,0s0-.05,0-.08h0l0-.08Z" style="fill:#4d4c51"/><path d="M213.76,25.44l.11-.08a.17.17,0,0,1,.1,0,.12.12,0,0,1,.1,0,.21.21,0,0,1,.11.08.43.43,0,0,1,0,.12.34.34,0,0,1,0,.14l0,0,0,.05,0,0-.05,0a.15.15,0,0,1-.09,0h-.07l-.05,0a.1.1,0,0,1,0,0,.14.14,0,0,1-.05-.08l0,0a.3.3,0,0,1,0-.13A.5.5,0,0,1,213.76,25.44Z" style="fill:#4d4c51"/><path d="M216.88,22.49a.51.51,0,0,1,.09-.18l.1-.1a.49.49,0,0,1,.26-.1h0a.4.4,0,0,1,.22,0l.09,0h0l.1.05a.47.47,0,0,1,.19.15s0,0,0,.07l0,0,0,.08a.17.17,0,0,1,0,.12.11.11,0,0,1,0,.08.11.11,0,0,1,0,.08.08.08,0,0,1,0,0,.32.32,0,0,1,0,.09.7.7,0,0,1-.19.15l-.11.05,0,0-.11.05a.32.32,0,0,1-.14,0h-.09a.39.39,0,0,1-.2-.08A.37.37,0,0,1,217,23l-.07-.12a.52.52,0,0,1,0-.21A.68.68,0,0,1,216.88,22.49Z" style="fill:#4d4c51"/><path d="M219,23.62a.15.15,0,0,1,0-.09l0-.05.07,0a.2.2,0,0,1,.11,0h.07a.09.09,0,0,1,.06,0,.14.14,0,0,1,.08.07l0,.06,0,.07v.08a.42.42,0,0,1,0,.1.18.18,0,0,1-.07.08l0,0,0,0h-.15a.12.12,0,0,1-.08,0h0l0-.05a.21.21,0,0,1,0-.1.11.11,0,0,1,0-.08A.09.09,0,0,1,219,23.62Z" style="fill:#4d4c51"/><path d="M168.14,13.21l-.08-.05-.05-.07a1.65,1.65,0,0,0-1.8-.39,1.43,1.43,0,0,0-.69.57,1.77,1.77,0,0,0-.25,1,1.61,1.61,0,0,0,1,1.41,1.75,1.75,0,0,0,1.75-.35,1.6,1.6,0,0,0,.52-1A1.32,1.32,0,0,0,168.14,13.21Z" style="fill:#4d4c51"/></svg>