<?xml version="1.0" encoding="utf-8"?>
<!-- Generator: Adobe Illustrator 25.2.1, SVG Export Plug-In . SVG Version: 6.00 Build 0)  -->
<svg version="1.1" id="Capa_1" xmlns="http://www.w3.org/2000/svg" xmlns:xlink="http://www.w3.org/1999/xlink" x="0px" y="0px"
	 viewBox="0 0 100 100" style="enable-background:new 0 0 100 100;" xml:space="preserve">
<style type="text/css">
	.st0{fill:#FFFFFF;}
</style>
<circle class="st0" cx="10" cy="10" r="1.5"/>
<circle class="st0" cx="30" cy="20" r="1"/>
<circle class="st0" cx="70" cy="40" r="1.2"/>
<circle class="st0" cx="50" cy="70" r="1.4"/>
<circle class="st0" cx="20" cy="80" r="1.1"/>
<circle class="st0" cx="80" cy="90" r="1.3"/>
<path class="st0" d="M70.3,37.6l0.6,1.2c0,0.1,0.1,0.1,0.2,0.2l1.3,0.2c0.2,0,0.3,0.3,0.2,0.5l-1,0.9c-0.1,0.1-0.1,0.2-0.1,0.3
	l0.2,1.3c0,0.2-0.2,0.4-0.4,0.3l-1.2-0.6c-0.1,0-0.2,0-0.3,0l-1.2,0.6c-0.2,0.1-0.5-0.1-0.4-0.3l0.2-1.3c0-0.1,0-0.2-0.1-0.3l-1-0.9
	c-0.2-0.2-0.1-0.5,0.2-0.5l1.3-0.2c0.1,0,0.2-0.1,0.2-0.2l0.6-1.2C69.8,37.4,70.2,37.4,70.3,37.6z"/>
<path class="st0" d="M50,67.6l0.6,1.2c0,0.1,0.1,0.1,0.2,0.2l1.3,0.2c0.2,0,0.3,0.3,0.2,0.5l-1,0.9c-0.1,0.1-0.1,0.2-0.1,0.3
	l0.2,1.3c0,0.2-0.2,0.4-0.4,0.3l-1.2-0.6c-0.1,0-0.2,0-0.3,0l-1.2,0.6c-0.2,0.1-0.5-0.1-0.4-0.3l0.2-1.3c0-0.1,0-0.2-0.1-0.3l-1-0.9
	c-0.2-0.2-0.1-0.5,0.2-0.5l1.3-0.2c0.1,0,0.2-0.1,0.2-0.2l0.6-1.2C49.6,67.3,49.9,67.3,50,67.6z"/>
<path class="st0" d="M80.3,87.6l0.6,1.2c0,0.1,0.1,0.1,0.2,0.2l1.3,0.2c0.2,0,0.3,0.3,0.2,0.5l-1,0.9c-0.1,0.1-0.1,0.2-0.1,0.3
	l0.2,1.3c0,0.2-0.2,0.4-0.4,0.3l-1.2-0.6c-0.1,0-0.2,0-0.3,0l-1.2,0.6c-0.2,0.1-0.5-0.1-0.4-0.3l0.2-1.3c0-0.1,0-0.2-0.1-0.3l-1-0.9
	c-0.2-0.2-0.1-0.5,0.2-0.5l1.3-0.2c0.1,0,0.2-0.1,0.2-0.2l0.6-1.2C79.8,87.4,80.2,87.4,80.3,87.6z"/>
<path class="st0" d="M20.3,77.6l0.6,1.2c0,0.1,0.1,0.1,0.2,0.2l1.3,0.2c0.2,0,0.3,0.3,0.2,0.5l-1,0.9c-0.1,0.1-0.1,0.2-0.1,0.3
	l0.2,1.3c0,0.2-0.2,0.4-0.4,0.3l-1.2-0.6c-0.1,0-0.2,0-0.3,0l-1.2,0.6c-0.2,0.1-0.5-0.1-0.4-0.3l0.2-1.3c0-0.1,0-0.2-0.1-0.3l-1-0.9
	c-0.2-0.2-0.1-0.5,0.2-0.5l1.3-0.2c0.1,0,0.2-0.1,0.2-0.2l0.6-1.2C19.8,77.4,20.2,77.4,20.3,77.6z"/>
<path class="st0" d="M31.1,17.8l0.6,1.2c0,0.1,0.1,0.1,0.2,0.2l1.3,0.2c0.2,0,0.3,0.3,0.2,0.5l-1,0.9c-0.1,0.1-0.1,0.2-0.1,0.3
	l0.2,1.3c0,0.2-0.2,0.4-0.4,0.3L31,22c-0.1,0-0.2,0-0.3,0l-1.2,0.6c-0.2,0.1-0.5-0.1-0.4-0.3l0.2-1.3c0-0.1,0-0.2-0.1-0.3l-1-0.9
	c-0.2-0.2-0.1-0.5,0.2-0.5l1.3-0.2c0.1,0,0.2-0.1,0.2-0.2l0.6-1.2C30.7,17.5,31,17.5,31.1,17.8z"/>
<path class="st0" d="M10.3,7.6l0.6,1.2C10.9,8.9,11,9,11.1,9l1.3,0.2c0.2,0,0.3,0.3,0.2,0.5l-1,0.9c-0.1,0.1-0.1,0.2-0.1,0.3
	l0.2,1.3c0,0.2-0.2,0.4-0.4,0.3l-1.2-0.6c-0.1,0-0.2,0-0.3,0l-1.2,0.6c-0.2,0.1-0.5-0.1-0.4-0.3l0.2-1.3c0-0.1,0-0.2-0.1-0.3l-1-0.9
	C7.3,9.5,7.4,9.2,7.6,9.2L8.9,9C9,9,9.1,8.9,9.1,8.8l0.6-1.2C9.8,7.4,10.2,7.4,10.3,7.6z"/>
<path class="st0" d="M52.4,52l0.6,1.2c0,0.1,0.1,0.1,0.2,0.2l1.3,0.2c0.2,0,0.3,0.3,0.2,0.5l-1,0.9c-0.1,0.1-0.1,0.2-0.1,0.3
	l0.2,1.3c0,0.2-0.2,0.4-0.4,0.3l-1.2-0.6c-0.1,0-0.2,0-0.3,0l-1.2,0.6c-0.2,0.1-0.5-0.1-0.4-0.3l0.2-1.3c0-0.1,0-0.2-0.1-0.3l-1-0.9
	c-0.2-0.2-0.1-0.5,0.2-0.5l1.3-0.2c0.1,0,0.2-0.1,0.2-0.2l0.6-1.2C52,51.8,52.3,51.8,52.4,52z"/>
</svg>
